<svg width="298" height="81" viewBox="0 0 298 81" fill="none" xmlns="http://www.w3.org/2000/svg">
<g clip-path="url(#clip0_8918_2300)">
<path d="M10.56 64V56.256H22.016C24.9173 56.256 27.456 55.6587 29.632 54.464C31.808 53.2267 33.4933 51.4987 34.688 49.28C35.9253 47.0613 36.544 44.4373 36.544 41.408C36.544 38.464 35.9253 35.904 34.688 33.728C33.4507 31.5093 31.744 29.8027 29.568 28.608C27.392 27.3707 24.8747 26.752 22.016 26.752H10.368V19.008H22.144C25.472 19.008 28.544 19.5627 31.36 20.672C34.2187 21.7813 36.6933 23.36 38.784 25.408C40.9173 27.4133 42.56 29.7813 43.712 32.512C44.9067 35.2427 45.504 38.2293 45.504 41.472C45.504 44.7147 44.9067 47.7227 43.712 50.496C42.56 53.2267 40.9387 55.616 38.848 57.664C36.7573 59.6693 34.2827 61.2267 31.424 62.336C28.608 63.4453 25.5573 64 22.272 64H10.56ZM4.608 64V19.008H13.312V64H4.608ZM50.8845 64V33.088H59.3325V64H50.8845ZM55.1085 28.096C53.7432 28.096 52.6125 27.648 51.7165 26.752C50.8205 25.8133 50.3725 24.6613 50.3725 23.296C50.3725 21.9733 50.8205 20.8427 51.7165 19.904C52.6125 18.9653 53.7432 18.496 55.1085 18.496C56.5165 18.496 57.6472 18.9653 58.5005 19.904C59.3965 20.8427 59.8445 21.9733 59.8445 23.296C59.8445 24.6613 59.3965 25.8133 58.5005 26.752C57.6472 27.648 56.5165 28.096 55.1085 28.096ZM76.1675 64L62.5355 33.088H71.7515L81.5435 58.56H76.9995L86.8555 33.088H95.7515L82.1835 64H76.1675ZM98.9795 64V33.088H107.428V64H98.9795ZM103.204 28.096C101.838 28.096 100.708 27.648 99.8115 26.752C98.9155 25.8133 98.4675 24.6613 98.4675 23.296C98.4675 21.9733 98.9155 20.8427 99.8115 19.904C100.708 18.9653 101.838 18.496 103.204 18.496C104.612 18.496 105.742 18.9653 106.596 19.904C107.492 20.8427 107.94 21.9733 107.94 23.296C107.94 24.6613 107.492 25.8133 106.596 26.752C105.742 27.648 104.612 28.096 103.204 28.096ZM124.839 64.704C123.089 64.704 121.361 64.4693 119.655 64C117.991 63.5307 116.455 62.8907 115.047 62.08C113.639 61.2267 112.423 60.2027 111.399 59.008L116.391 53.952C117.457 55.1467 118.695 56.0427 120.103 56.64C121.511 57.2373 123.068 57.536 124.775 57.536C126.14 57.536 127.164 57.344 127.847 56.96C128.572 56.576 128.935 56 128.935 55.232C128.935 54.3787 128.551 53.7173 127.783 53.248C127.057 52.7787 126.097 52.3947 124.903 52.096C123.708 51.7547 122.449 51.392 121.127 51.008C119.847 50.5813 118.609 50.048 117.415 49.408C116.22 48.7253 115.239 47.808 114.471 46.656C113.745 45.4613 113.383 43.9253 113.383 42.048C113.383 40.0853 113.852 38.3787 114.791 36.928C115.772 35.4773 117.159 34.3467 118.951 33.536C120.743 32.7253 122.855 32.32 125.287 32.32C127.847 32.32 130.151 32.768 132.199 33.664C134.289 34.56 136.017 35.904 137.383 37.696L132.327 42.752C131.388 41.6 130.321 40.768 129.127 40.256C127.975 39.744 126.716 39.488 125.351 39.488C124.113 39.488 123.153 39.68 122.471 40.064C121.831 40.448 121.511 40.9813 121.511 41.664C121.511 42.432 121.873 43.0293 122.599 43.456C123.367 43.8827 124.348 44.2667 125.543 44.608C126.737 44.9067 127.975 45.2693 129.255 45.696C130.577 46.08 131.815 46.6347 132.967 47.36C134.161 48.0853 135.121 49.0453 135.847 50.24C136.615 51.4347 136.999 52.9707 136.999 54.848C136.999 57.8773 135.911 60.288 133.735 62.08C131.559 63.8293 128.593 64.704 124.839 64.704ZM142.012 64V33.088H150.46V64H142.012ZM146.236 28.096C144.871 28.096 143.74 27.648 142.844 26.752C141.948 25.8133 141.5 24.6613 141.5 23.296C141.5 21.9733 141.948 20.8427 142.844 19.904C143.74 18.9653 144.871 18.496 146.236 18.496C147.644 18.496 148.775 18.9653 149.628 19.904C150.524 20.8427 150.972 21.9733 150.972 23.296C150.972 24.6613 150.524 25.8133 149.628 26.752C148.775 27.648 147.644 28.096 146.236 28.096ZM171.775 64.64C168.66 64.64 165.844 63.936 163.327 62.528C160.852 61.0773 158.868 59.136 157.375 56.704C155.924 54.2293 155.199 51.4773 155.199 48.448C155.199 45.4187 155.924 42.7093 157.375 40.32C158.826 37.888 160.81 35.968 163.327 34.56C165.844 33.1093 168.639 32.384 171.711 32.384C174.868 32.384 177.684 33.1093 180.159 34.56C182.676 35.968 184.66 37.888 186.111 40.32C187.562 42.7093 188.287 45.4187 188.287 48.448C188.287 51.4773 187.562 54.2293 186.111 56.704C184.66 59.136 182.676 61.0773 180.159 62.528C177.684 63.936 174.89 64.64 171.775 64.64ZM171.711 56.832C173.29 56.832 174.676 56.4907 175.871 55.808C177.108 55.0827 178.047 54.1013 178.687 52.864C179.37 51.584 179.711 50.1333 179.711 48.512C179.711 46.8907 179.37 45.4613 178.687 44.224C178.004 42.9867 177.066 42.0267 175.871 41.344C174.676 40.6187 173.29 40.256 171.711 40.256C170.175 40.256 168.81 40.6187 167.615 41.344C166.42 42.0267 165.482 42.9867 164.799 44.224C164.116 45.4613 163.775 46.8907 163.775 48.512C163.775 50.1333 164.116 51.584 164.799 52.864C165.482 54.1013 166.42 55.0827 167.615 55.808C168.81 56.4907 170.175 56.832 171.711 56.832ZM213.845 64V46.272C213.845 44.4373 213.269 42.944 212.117 41.792C210.965 40.64 209.471 40.064 207.637 40.064C206.442 40.064 205.375 40.32 204.437 40.832C203.498 41.344 202.751 42.0693 202.197 43.008C201.685 43.9467 201.429 45.0347 201.429 46.272L198.165 44.608C198.165 42.176 198.677 40.064 199.701 38.272C200.767 36.4373 202.218 35.008 204.053 33.984C205.93 32.96 208.042 32.448 210.389 32.448C212.65 32.448 214.677 33.024 216.469 34.176C218.261 35.2853 219.669 36.7573 220.693 38.592C221.717 40.384 222.229 42.3253 222.229 44.416V64H213.845ZM193.045 64V33.088H201.429V64H193.045ZM235.958 64L254.07 19.008H261.174L279.222 64H269.942L255.99 27.072H259.19L245.046 64H235.958ZM245.558 55.616V48.32H269.75V55.616H245.558ZM283.896 64V19.008H292.6V64H283.896Z" fill="black"/>
</g>
<defs>
<clipPath id="clip0_8918_2300">
<rect width="298" height="81" fill="white"/>
</clipPath>
</defs>
</svg>
