<?xml version="1.0" encoding="UTF-8"?> <svg xmlns="http://www.w3.org/2000/svg" width="1268" height="761" viewBox="0 0 1268 761" fill="none"><path d="M0 12.68C0 5.67704 5.67703 0 12.68 0H1255.32C1262.32 0 1268 5.67703 1268 12.68V50.72H0V12.68Z" fill="#EBEBEB"></path><circle cx="31.7009" cy="25.3601" r="5.072" fill="#6D6D6D"></circle><circle cx="46.9177" cy="25.3601" r="5.072" fill="#6D6D6D"></circle><circle cx="62.1325" cy="25.3601" r="5.072" fill="#6D6D6D"></circle><rect x="380.4" y="12.6797" width="507.2" height="25.36" rx="7.608" fill="#6D6D6D"></rect><rect width="1268" height="710.08" transform="translate(0 50.7197)" fill="#F7F7F7"></rect><path d="M651.751 380.399H616.247C612.05 380.412 608.651 383.811 608.639 388.007V410.476L618.478 400.637C621.49 397.771 626.22 397.771 629.231 400.637L636.513 407.958L638.764 405.707C641.739 402.749 646.546 402.749 649.522 405.707L659.359 415.544V388.007C659.346 383.811 655.947 380.412 651.751 380.399Z" fill="#EBEBEB"></path><path d="M629.231 400.637C626.22 397.771 621.49 397.771 618.478 400.637L608.639 410.476V423.511C608.651 427.708 612.05 431.107 616.247 431.119H651.751C653.818 431.118 655.796 430.276 657.228 428.786L629.231 400.637Z" fill="#2F2F2F"></path><path d="M659.358 415.544L649.521 405.707C646.545 402.749 641.738 402.749 638.762 405.707L636.512 407.958L657.216 428.775C658.591 427.368 659.36 425.478 659.358 423.511V415.544Z" fill="#6D6D6D"></path><circle cx="639.07" cy="390.544" r="5.072" fill="#2F2F2F"></circle></svg> 